<svg xmlns="http://www.w3.org/2000/svg" width="91.507" height="75" viewBox="0 0 91.507 75"><defs><style>.a,.h{fill:none;}.a,.b{stroke:#1a100c;}.a{stroke-linejoin:round;}.a,.e{stroke-miterlimit:10;stroke-width:2px;}.b{fill:#f2f2f2;stroke-width:2.5px;}.c{fill:#fe3535;}.c,.d,.e,.f{isolation:isolate;}.e{fill:#db3529;stroke:#fe3535;stroke-linecap:round;}.f{fill:#1a100c;}.g{stroke:none;}</style></defs><g transform="translate(-145 -915)"><path class="a" d="M686.6,467.941c-1.816,3.6-6.95,6.7-6.95,6.7s5.134,3.1,6.95,6.7c1.816-3.6,6.949-6.7,6.949-6.7S688.414,471.541,686.6,467.941Z" transform="translate(-533.647 467.718)"/><path class="a" d="M767.537,494.474c-1.255,2.49-4.806,4.632-4.806,4.632s3.55,2.142,4.806,4.631c1.255-2.489,4.8-4.631,4.8-4.631S768.792,496.964,767.537,494.474Z" transform="translate(-536.834 467.493)"/><g transform="translate(-15 9)"><g class="b" transform="translate(187 906)"><rect class="g" width="46" height="75" rx="7"/><rect class="h" x="1.25" y="1.25" width="43.5" height="72.5" rx="5.75"/></g><g transform="translate(195.957 923.466)"><rect class="c" width="9.366" height="9.337" transform="translate(0.405)"/><path class="c" d="M732.315,480.337,738.169,471l5.854,9.337Z" transform="translate(-716.322 -471)"/><ellipse class="c" cx="5.101" cy="5.085" rx="5.101" ry="5.085" transform="translate(0 17.228)"/><g class="d" transform="translate(18.058 18.26)"><line class="e" y1="7.354" x2="7.377"/><line class="e" x1="7.377" y1="7.354"/></g></g><ellipse class="f" cx="5.814" cy="5.796" rx="5.814" ry="5.796" transform="translate(203.898 958.383)"/></g></g></svg>