<?xml version="1.0" encoding="iso-8859-1"?>
<!-- Uploaded to: SVG Repo, www.svgrepo.com, Generator: SVG Repo Mixer Tools -->
<svg height="800px" width="800px" version="1.1" id="Layer_1" xmlns="http://www.w3.org/2000/svg" xmlns:xlink="http://www.w3.org/1999/xlink" 
	 viewBox="0 0 392.663 392.663" xml:space="preserve">
<path style="fill:#194F82;" d="M175.838,66.327h-16.097c-0.065-0.259-0.259-0.517-0.323-0.776l11.378-11.378
	c4.267-4.267,4.267-11.119,0-15.451L148.04,15.968c-4.267-4.267-11.119-4.267-15.451,0l-11.378,11.378
	c-0.259-0.065-0.517-0.259-0.776-0.323V10.925C120.436,4.913,115.588,0,109.511,0H77.317c-6.012,0-10.925,4.848-10.925,10.925
	v16.162c-0.259,0.065-0.517,0.259-0.776,0.323L54.238,15.968c-2.004-2.004-8.404-6.012-15.451,0l-22.691,22.82
	c-4.267,4.267-4.267,11.119,0,15.451L27.41,65.616c-0.065,0.259-0.259,0.517-0.323,0.776H10.99c-6.012,0-10.925,4.848-10.925,10.925
	v32.194c0,6.012,4.848,10.925,10.925,10.925h16.097c0.065,0.259,0.259,0.517,0.323,0.776L16.032,132.59
	c-4.267,4.267-4.267,11.119,0,15.451l22.691,22.82c4.267,4.267,11.119,4.267,15.451,0l11.378-11.378
	c0.259,0.065,0.517,0.259,0.776,0.323v16.097c0,6.012,4.848,10.925,10.925,10.925h32.129c6.012,0,10.925-4.848,10.925-10.925
	v-16.097c0.259-0.065,0.517-0.259,0.776-0.323l11.378,11.378c4.267,4.267,11.119,4.267,15.451,0l22.82-22.82
	c4.267-4.719,4.461-11.055,0-15.451l-11.442-11.442c0.065-0.259,0.259-0.517,0.323-0.776h16.097c6.012,0,10.925-4.848,10.925-10.925
	V77.317C186.699,71.305,181.85,66.327,175.838,66.327z M164.913,98.586h-12.994c-4.913,0-9.18,3.297-10.537,8.016
	c-1.099,3.943-2.715,7.758-4.719,11.378c-2.392,4.267-1.681,9.632,1.745,13.123l9.18,9.18l-7.37,7.37l-9.18-9.18
	c-3.491-3.491-8.792-4.202-13.123-1.745c-3.62,2.069-7.499,3.62-11.378,4.719c-4.719,1.293-8.016,5.624-8.016,10.537v12.994H88.178
	v-12.994c0-4.913-3.297-9.18-8.016-10.537c-3.943-1.099-7.758-2.715-11.378-4.719c-4.267-2.392-9.632-1.681-13.123,1.745l-9.18,9.18
	l-7.37-7.37l9.18-9.18c3.491-3.491,4.202-8.792,1.745-13.123c-2.069-3.62-3.62-7.499-4.719-11.378
	c-1.293-4.719-5.624-8.016-10.537-8.016H21.915V88.242h12.994c4.978,0,9.18-3.297,10.537-8.016
	c1.099-3.943,2.715-7.758,4.719-11.378c2.392-4.267,1.681-9.632-1.745-13.123l-9.18-9.18l7.37-7.37l9.18,9.18
	c3.491,3.491,8.792,4.202,13.123,1.745c3.62-2.069,7.434-3.62,11.378-4.719c4.719-1.293,8.016-5.624,8.016-10.602V21.786H98.65
	V34.78c0,4.978,3.297,9.18,8.016,10.537c3.943,1.099,7.758,2.715,11.378,4.719c4.267,2.457,9.632,1.681,13.123-1.745l9.18-9.18
	l7.37,7.37l-9.18,9.244c-3.491,3.491-4.202,8.792-1.745,13.123c2.069,3.62,3.62,7.499,4.719,11.378
	c1.293,4.719,5.624,8.016,10.537,8.016h12.994v10.343L164.913,98.586L164.913,98.586z"/>
<path style="fill:#FFC10D;" d="M141.446,80.162c-1.099-3.943-2.715-7.758-4.719-11.378c-2.392-4.267-1.681-9.632,1.745-13.123
	l9.18-9.18l-7.37-7.37l-9.18,9.18c-3.491,3.491-8.792,4.202-13.123,1.745c-3.62-2.069-7.499-3.62-11.378-4.719
	c-4.719-1.293-8.016-5.624-8.016-10.537V21.721H88.178v12.994c0,4.978-3.297,9.18-8.016,10.537
	c-3.943,1.099-7.758,2.715-11.378,4.719c-4.267,2.392-9.632,1.681-13.123-1.745l-9.18-9.115l-7.37,7.37l9.18,9.18
	c3.491,3.491,4.202,8.792,1.745,13.123c-2.069,3.62-3.62,7.499-4.719,11.378c-1.293,4.719-5.624,8.016-10.537,8.016H21.915v10.343
	h12.994c4.978,0,9.18,3.297,10.537,8.016c1.099,3.943,2.715,7.758,4.719,11.378c2.392,4.267,1.681,9.632-1.745,13.123l-9.18,9.18
	l7.37,7.37l9.18-9.18c3.491-3.491,8.792-4.202,13.123-1.745c3.62,2.069,7.499,3.62,11.378,4.719
	c4.719,1.293,8.016,5.624,8.016,10.537v12.994H98.65v-12.994c0-4.913,3.297-9.18,8.016-10.537c3.943-1.099,7.758-2.715,11.378-4.719
	c4.267-2.392,9.632-1.681,13.123,1.745l9.18,9.18l7.37-7.37l-9.18-9.18c-3.491-3.491-4.202-8.792-1.745-13.123
	c2.069-3.62,3.62-7.499,4.719-11.378c1.293-4.719,5.624-8.016,10.537-8.016h12.994V88.178h-12.994
	C147.006,88.242,142.675,84.881,141.446,80.162z M93.414,126.836c-18.489,0-33.487-14.998-33.487-33.487
	s14.998-33.487,33.487-33.487s33.487,14.998,33.487,33.487C126.901,111.903,111.838,126.836,93.414,126.836z"/>
<path style="fill:#194F82;" d="M93.414,59.863c-18.489,0-33.487,14.998-33.487,33.487s14.998,33.487,33.487,33.487
	s33.487-14.998,33.487-33.487C126.901,74.925,111.838,59.863,93.414,59.863z M93.414,104.792c-6.271,0-11.442-5.107-11.442-11.442
	c0-6.335,5.107-11.442,11.442-11.442c6.271,0,11.442,5.107,11.442,11.442C104.792,99.685,99.62,104.792,93.414,104.792z"/>
<path style="fill:#56ACE0;" d="M336.032,239.58c-1.745-6.335-4.267-12.347-7.434-17.907c-2.392-4.267-1.681-9.632,1.745-13.123
	l17.131-17.131l-18.101-18.101l-17.067,17.196c-3.491,3.491-8.792,4.202-13.123,1.745c-5.56-3.168-11.572-5.624-17.907-7.434
	c-4.719-1.293-8.016-5.624-8.016-10.537v-24.242h-25.6v24.242c0,4.913-3.232,9.18-8.016,10.537
	c-6.335,1.745-12.347,4.267-17.907,7.434c-4.267,2.457-9.632,1.681-13.123-1.745l-17.131-17.131l-18.101,18.101l17.131,17.131
	c3.491,3.491,4.202,8.792,1.745,13.123c-3.168,5.56-5.624,11.572-7.434,17.907c-1.293,4.719-5.624,8.016-10.537,8.016h-24.242v25.6
	h24.242c4.913,0,9.18,3.232,10.537,8.016c1.745,6.335,4.267,12.347,7.434,17.907c2.392,4.267,1.681,9.632-1.745,13.123
	l-17.131,17.131l18.101,18.101l17.131-17.131c3.491-3.491,8.792-4.202,13.123-1.745c5.56,3.168,11.572,5.624,17.907,7.434
	c4.719,1.293,8.016,5.624,8.016,10.537v24.242h25.6v-24.242c0-4.978,3.297-9.18,8.016-10.537c6.335-1.681,12.347-4.267,17.907-7.434
	c4.267-2.457,9.632-1.681,13.123,1.745l17.131,17.131l18.101-18.101l-17.131-17.131c-3.491-3.491-4.202-8.792-1.745-13.123
	c3.168-5.56,5.624-11.572,7.434-17.907c1.293-4.719,5.624-8.016,10.537-8.016h24.242v-25.6h-24.242
	C341.592,247.661,337.325,244.364,336.032,239.58z M260.461,304.356c-24.178,0-43.895-19.717-43.895-43.895
	s19.717-43.895,43.895-43.895s43.895,19.717,43.895,43.895S284.638,304.356,260.461,304.356z"/>
<g>
	<path style="fill:#194F82;" d="M260.461,216.501c-24.178,0-43.895,19.717-43.895,43.895s19.717,43.895,43.895,43.895
		s43.895-19.717,43.895-43.895S284.638,216.501,260.461,216.501z M260.461,282.505c-12.218,0-22.109-9.891-22.109-22.109
		c0-12.218,9.891-22.109,22.109-22.109c12.218,0,22.109,9.891,22.109,22.109C282.57,272.614,272.549,282.505,260.461,282.505z"/>
	<path style="fill:#194F82;" d="M381.673,225.875h-27.152c-0.905-2.521-1.939-5.042-3.103-7.499l19.265-19.265
		c4.267-4.267,4.267-11.119,0-15.451l-33.487-33.487c-4.267-4.267-11.119-4.267-15.451,0l-19.265,19.265
		c-2.457-1.164-4.913-2.133-7.499-3.103v-27.216c0-6.012-4.849-10.925-10.925-10.925h-47.386c-6.012,0-10.925,4.848-10.925,10.925
		v27.216c-2.521,0.905-5.042,1.939-7.499,3.103l-19.265-19.265c-4.267-4.267-11.119-4.267-15.451,0l-33.487,33.487
		c-4.267,4.267-4.267,11.119,0,15.451l19.265,19.265c-1.164,2.457-2.133,4.913-3.103,7.499H138.99
		c-6.012,0-10.925,4.848-10.925,10.925v47.386c0,6.012,4.848,10.925,10.925,10.925h27.216c0.905,2.521,1.939,5.042,3.103,7.499
		l-19.135,19.135c-4.267,4.267-4.267,11.119,0,15.451l33.487,33.487c4.267,4.267,11.119,4.267,15.451,0l19.265-19.265
		c2.457,1.164,4.913,2.133,7.499,3.103v27.216c0,6.012,4.848,10.925,10.925,10.925h47.386c6.012,0,10.925-4.848,10.925-10.925
		v-27.216c2.521-0.905,5.042-1.939,7.499-3.103l19.265,19.265c4.461,4.655,11.766,4.073,15.451,0l33.487-33.487
		c4.267-4.267,4.267-11.119,0-15.451l-19.265-19.265c1.164-2.457,2.133-4.913,3.103-7.499h27.022
		c6.012,0,10.925-4.848,10.925-10.925v-47.386C392.598,230.723,387.75,225.875,381.673,225.875z M370.812,273.196H346.57
		c-4.978,0-9.18,3.232-10.537,8.016c-1.745,6.335-4.267,12.347-7.434,17.907c-2.392,4.267-1.681,9.632,1.745,13.123l17.131,17.131
		l-18.101,18.101l-17.131-17.261c-3.491-3.491-8.792-4.202-13.123-1.745c-5.56,3.168-11.572,5.624-17.907,7.434
		c-4.719,1.293-8.016,5.624-8.016,10.537v24.242h-25.6V346.44c0-4.978-3.232-9.18-8.016-10.537
		c-6.335-1.745-12.347-4.267-17.907-7.434c-4.267-2.392-9.632-1.681-13.123,1.745l-17.131,17.131l-18.101-18.101l17.131-17.131
		c3.491-3.491,4.202-8.792,1.745-13.123c-3.168-5.56-5.624-11.572-7.434-17.907c-1.293-4.719-5.624-8.016-10.537-8.016H149.98v-25.6
		h24.242c4.913,0,9.18-3.232,10.537-8.016c1.745-6.335,4.267-12.347,7.434-17.907c2.392-4.267,1.681-9.632-1.745-13.123
		l-17.131-17.131l18.101-18.101l17.131,17.131c3.491,3.491,8.792,4.202,13.123,1.745c5.56-3.168,11.572-5.624,17.907-7.434
		c4.719-1.293,8.016-5.624,8.016-10.537v-24.242h25.6v24.242c0,4.913,3.297,9.18,8.016,10.537
		c6.335,1.681,12.348,4.267,17.907,7.434c4.267,2.392,9.632,1.681,13.123-1.745l17.131-17.131l18.101,18.101l-17.131,17.131
		c-3.491,3.491-4.202,8.792-1.745,13.123c3.168,5.56,5.624,11.572,7.434,17.907c1.293,4.719,5.624,8.016,10.537,8.016h24.242
		V273.196z"/>
</g>
</svg>