<svg xmlns="http://www.w3.org/2000/svg" width="130.507" height="66.921" viewBox="0 0 130.507 66.921"><defs><style>.a,.c,.d{fill:none;}.a{stroke:#1a100c;stroke-width:2px;}.a,.b,.c{stroke-linejoin:round;stroke-miterlimit:10;}.b{fill:#fe3535;isolation:isolate;}.b,.c,.d{stroke:#080808;stroke-linecap:round;stroke-width:2.5px;}.d{stroke-dasharray:4;}</style></defs><g transform="translate(-758 -919.573)"><path class="a" d="M686.6,467.941c-1.816,3.6-6.95,6.7-6.95,6.7s5.134,3.1,6.95,6.7c1.816-3.6,6.949-6.7,6.949-6.7S688.414,471.541,686.6,467.941Z" transform="translate(79.353 465.718)"/><path class="a" d="M767.537,494.474c-1.255,2.49-4.806,4.632-4.806,4.632s3.55,2.142,4.806,4.631c1.255-2.489,4.8-4.631,4.8-4.631S768.792,496.964,767.537,494.474Z" transform="translate(115.166 472.493)"/><g transform="translate(-12.961 9.251)"><g transform="translate(829.653 947.148)"><circle class="b" cx="8.951" cy="8.951" r="8.951" transform="translate(1.411)"/><path class="c" d="M1088.549,864.072v-2.909a8.034,8.034,0,0,0-8.034-8.034h-4.657a8.034,8.034,0,0,0-8.034,8.034v2.909Z" transform="translate(-1067.824 -835.226)"/></g><g transform="translate(863.306 911.573)"><circle class="b" cx="8.951" cy="8.951" r="8.951" transform="translate(1.411)"/><path class="c" d="M1088.549,864.072v-2.909a8.034,8.034,0,0,0-8.034-8.034h-4.657a8.034,8.034,0,0,0-8.034,8.034v2.909Z" transform="translate(-1067.824 -835.226)"/></g><g transform="translate(796 911.573)"><circle class="b" cx="8.951" cy="8.951" r="8.951" transform="translate(1.411)"/><path class="c" d="M1088.549,864.072v-2.909a8.034,8.034,0,0,0-8.034-8.034h-4.657a8.034,8.034,0,0,0-8.034,8.034v2.909Z" transform="translate(-1067.824 -835.226)"/></g><path class="d" d="M-2683.229,3676.932h18.381v-16" transform="translate(3539.584 -2715.361)"/><path class="d" d="M-2664.848,3676.932h-18.381v-16" transform="translate(3488.511 -2715.361)"/></g></g></svg>