<svg xmlns="http://www.w3.org/2000/svg" width="48" height="48" viewBox="0 0 48 48"><defs><style>.a{fill:#ededed;}.b{fill:#888;}</style></defs><g transform="translate(-203 -3731)"><rect class="a" width="48" height="48" rx="10" transform="translate(203 3731)"/><path class="b" d="M11.313,12.727A6.364,6.364,0,1,0,4.949,6.364,6.365,6.365,0,0,0,11.313,12.727Zm5.656,1.414H14.535a7.693,7.693,0,0,1-6.443,0H5.656A5.656,5.656,0,0,0,0,19.8V20.5a2.122,2.122,0,0,0,2.121,2.121H20.5A2.122,2.122,0,0,0,22.626,20.5V19.8A5.656,5.656,0,0,0,16.969,14.141Z" transform="translate(216.087 3743.687)"/></g></svg>