<svg xmlns="http://www.w3.org/2000/svg" width="16.538" height="41.999" viewBox="0 0 16.538 41.999"><defs><style>.a{fill:none;stroke-linejoin:round;}.a,.b,.c{stroke:#333;stroke-linecap:round;stroke-width:2px;}.a,.c{stroke-miterlimit:10;}</style></defs><g transform="translate(-2010.108 852.072)"><path class="a" d="M2010.609-839.2c0-1.795,0-3.589,0-5.384a6.445,6.445,0,0,1,6.494-6.49,12.651,12.651,0,0,1,3.358.244,6.392,6.392,0,0,1,4.581,5.212,36.215,36.215,0,0,1,.1,3.665c.012,2.713,0,5.425,0,8.138a6.46,6.46,0,0,1-6.511,6.52,12.445,12.445,0,0,1-3.235-.229,6.49,6.49,0,0,1-4.787-6.126C2010.595-835.5,2010.609-837.346,2010.609-839.2Z" transform="translate(0.5 0)"/><path class="b" d="M0,0V5.927" transform="translate(2018.141 -845.975)"/><g transform="translate(2014.537 -820.795)"><line class="c" y2="8.231" transform="translate(3.604)"/><path class="a" d="M2073.427-476.674l3.564,3.564,3.564-3.564" transform="translate(-2073.427 482.832)"/></g></g></svg>