<svg xmlns="http://www.w3.org/2000/svg" width="115.507" height="68.748" viewBox="0 0 115.507 68.748"><defs><style>.a{fill:#f2f2f2;}.a,.b,.e,.f,.h,.i{stroke:#1a100c;}.a,.b,.c,.d,.e,.f,.h{stroke-linecap:round;}.a,.e,.f{stroke-width:2.5px;}.b,.c,.d,.i{fill:none;}.b,.d,.e,.f,.h,.i{stroke-miterlimit:10;}.b,.c,.d,.h,.i{stroke-width:2px;}.b,.d,.e{isolation:isolate;}.c,.d{stroke:#fe3535;}.e,.f{fill:#fe3535;}.g{fill:#1a100c;}.h{fill:#fef2e4;}.h,.i{stroke-linejoin:round;}</style></defs><g transform="translate(-437 -919.573)"><g transform="translate(-462.669 384.294)"><g transform="translate(927.497 536.529)"><rect class="a" width="66.894" height="46.255" rx="5"/><g transform="translate(34.682 28.382)"><line class="b" y1="6.647" transform="translate(0 2.473)"/><line class="b" y1="6.647" transform="translate(22.126 2.473)"/><line class="b" y1="8.826" x2="0.091" transform="translate(7.391 0.294)"/><line class="b" y1="9.12" transform="translate(14.751)"/></g><path class="c" d="M0,0H12.415" transform="translate(8.486 31.136)"/><line class="d" x2="18.514" transform="translate(8.486 37.031)"/><circle class="e" cx="6.164" cy="6.164" r="6.164" transform="translate(47.045 8.608)"/><rect class="f" width="30.94" height="13.52" rx="4" transform="translate(7.486 8.608)"/></g><g transform="translate(947.339 579.914)"><rect class="g" width="24.647" height="6.74" rx="3.37" transform="translate(1.271)"/><path class="h" d="M982.256,639.235l-4.71,17.374h4.71l7.536-17.374Z" transform="translate(-977.546 -633.496)"/><path class="h" d="M1022.2,639.235l4.71,17.374h-4.71l-7.536-17.374Z" transform="translate(-998.908 -633.496)"/></g></g><path class="i" d="M686.6,467.941c-1.816,3.6-6.95,6.7-6.95,6.7s5.134,3.1,6.95,6.7c1.816-3.6,6.949-6.7,6.949-6.7S688.414,471.541,686.6,467.941Z" transform="translate(-241.647 467.718)"/><path class="i" d="M767.537,494.474c-1.255,2.49-4.806,4.632-4.806,4.632s3.55,2.142,4.806,4.631c1.255-2.489,4.8-4.631,4.8-4.631S768.792,496.964,767.537,494.474Z" transform="translate(-220.834 467.493)"/></g></svg>